<?xml version="1.0" encoding="utf-8"?>
<!-- Generator: Adobe Illustrator 19.0.0, SVG Export Plug-In . SVG Version: 6.00 Build 0)  -->
<svg version="1.1" id="Camada_1" xmlns="http://www.w3.org/2000/svg" xmlns:xlink="http://www.w3.org/1999/xlink" x="0px" y="0px"
	 viewBox="-610.9 146 1276.4 335.1" style="enable-background:new -610.9 146 1276.4 335.1;" xml:space="preserve">
<style type="text/css">
	.st0{display:none;}
	.st1{display:inline;}
	.st2{fill:none;}
	.st3{display:inline;fill:url(#SVGID_1_);}
	.st4{display:inline;fill:none;}
	.st5{display:inline;opacity:9.000000e-002;fill:#010101;enable-background:new    ;}
	.st6{display:inline;fill:url(#SVGID_2_);}
	.st7{display:inline;fill:#4E4E4E;}
	.st8{fill:#EA4335;}
	.st9{fill:#4285F4;}
	.st10{fill:#FBBC04;}
	.st11{fill:#0F9D58;}
	.st12{fill:#676C72;}
	.st13{font-family:'GoogleSans-Regular';}
	.st14{font-size:141.201px;}
</style>
<g transform="translate(-985.904 -3367.887)" class="st0">
	<g class="st1">
		<path class="st2" d="M725.4,5370.3l-12.1,19.8c-0.7,1.1-0.2,2,1.1,2h14.2c1.3,0,2.9-0.9,3.6-2l6.4-10.4L725.4,5370.3z M743,5351.5
			l-10.8-17.4c-0.7-1.1-2.3-2-3.6-2h-14.2c-1.3,0-1.8,0.9-1.1,2l13.8,22.5l7.8-10.9L743,5351.5L743,5351.5z"/>
	</g>
	
		<linearGradient id="SVGID_1_" gradientUnits="userSpaceOnUse" x1="7217.3848" y1="4924.0518" x2="7232.8628" y2="4933.7246" gradientTransform="matrix(1 0 0 1 -6497.4048 451.1619)">
		<stop  offset="0.54" style="stop-color:#0A985C"/>
		<stop  offset="0.54" style="stop-color:#F6C25B"/>
	</linearGradient>
	<path class="st3" d="M737.9,5375.4c-1.2-2-4-7.1-6.2-10.9l-2.4-4.2c0.6,1.1,0.5,2.8-0.1,3.8l-15.9,26c-0.7,1.1-0.2,2,1.1,2h14.2
		c1.3,0,2.9-0.9,3.6-2l6.4-10.4C738.6,5379.9,739.4,5377.9,737.9,5375.4z"/>
	<path class="st4" d="M725.4,5370.3l-12.1,19.8c-0.7,1.1-0.2,2,1.1,2h14.2c1.3,0,2.9-0.9,3.6-2l6.4-10.4L725.4,5370.3L725.4,5370.3z
		 M743,5351.5l-10.8-17.4c-0.7-1.1-2.3-2-3.6-2h-14.2c-1.3,0-1.8,0.9-1.1,2l13.8,22.5l7.8-10.9L743,5351.5z"/>
	<path class="st5" d="M748.3,5364.1c0.7-1.1,0.7-2.9,0-4l-5.3-8.6l-8.2-5.8l-7.8,10.9l2.1,3.4c0.7,1.1,0.7,2.9,0,4l-3.8,6.2
		l13.3,9.4L748.3,5364.1z"/>
	
		<linearGradient id="SVGID_2_" gradientUnits="userSpaceOnUse" x1="7221.9082" y1="4905.8555" x2="7237.7925" y2="4895.9287" gradientTransform="matrix(1 0 0 1 -6497.4048 451.1619)">
		<stop  offset="0.57" style="stop-color:#5586C5"/>
		<stop  offset="0.57" style="stop-color:#D9423E"/>
	</linearGradient>
	<path class="st6" d="M748.3,5360.1l-16.1-26c-0.7-1.1-2.3-2-3.6-2h-14.2c-1.3,0-1.8,0.9-1.1,2l15.9,26l2.5,4.5
		c2.1,3.8,5,8.9,6.2,10.9c1.8,3,0.2,5.1,0.9,4l9.5-15.3C749,5363,749,5361.2,748.3,5360.1L748.3,5360.1z M729.2,5360.1L729.2,5360.1
		l0.1,0.1L729.2,5360.1z M730.4,5362.1l0.2,0.3L730.4,5362.1z M730.4,5362l0.3,0.5L730.4,5362z"/>
	<path class="st7" d="M782.2,5358.1h14.1v17.6c-3.8,1.3-8,2-12.6,2c-5,0-8.9-1.5-11.6-4.4s-4.1-7.1-4.1-12.5c0-5.3,1.5-9.4,4.5-12.3
		s7.2-4.4,12.6-4.4c2.1,0,4,0.2,5.8,0.6s3.4,0.9,4.8,1.5l-2.8,6.9c-2.3-1.2-4.9-1.7-7.7-1.7c-2.6,0-4.6,0.8-6,2.5s-2.1,4.1-2.1,7.2
		c0,3,0.6,5.4,1.9,7s3.1,2.4,5.5,2.4c1.3,0,2.5-0.1,3.6-0.4v-5.1h-5.8L782.2,5358.1L782.2,5358.1L782.2,5358.1z M827.8,5360.2
		c0,5.4-1.5,9.6-4.5,12.6c-3,2.9-7.2,4.4-12.6,4.4h-10.5v-32.6h11.3c5.2,0,9.3,1.3,12.1,4C826.4,5351.3,827.8,5355.2,827.8,5360.2
		L827.8,5360.2z M818.7,5360.5c0-3-0.6-5.2-1.8-6.6s-3-2.2-5.4-2.2h-2.6v18.3h2c2.7,0,4.6-0.8,5.9-2.3S818.7,5363.7,818.7,5360.5
		L818.7,5360.5z M844.1,5358.1h14.1v17.6c-3.8,1.3-8,2-12.6,2c-5,0-8.9-1.5-11.6-4.4s-4.1-7.1-4.1-12.5c0-5.3,1.5-9.4,4.5-12.3
		s7.2-4.4,12.6-4.4c2.1,0,4,0.2,5.8,0.6s3.4,0.9,4.8,1.5l-2.8,6.9c-2.3-1.2-4.9-1.7-7.7-1.7c-2.6,0-4.6,0.8-6,2.5s-2.1,4.1-2.1,7.2
		c0,3,0.6,5.4,1.9,7s3.1,2.4,5.5,2.4c1.3,0,2.5-0.1,3.6-0.4v-5.1h-5.8L844.1,5358.1z"/>
</g>
<g class="st0">
	<path class="st7" d="M-91.1,1980.8c-3.1,0-5.5,1.1-7.2,3.3c-1.8,2.2-2.6,5.2-2.6,9c0,4,0.8,7,2.5,9.1s4.1,3.1,7.3,3.1
		c1.4,0,2.7-0.1,4-0.4c1.3-0.3,2.6-0.6,4-1.1v4.6c-2.6,1-5.5,1.4-8.7,1.4c-4.8,0-8.4-1.4-11-4.3c-2.6-2.9-3.8-7-3.8-12.4
		c0-3.4,0.6-6.4,1.9-8.9c1.2-2.5,3-4.5,5.4-5.8c2.3-1.4,5.1-2,8.3-2c3.3,0,6.4,0.7,9.2,2.1l-1.9,4.4c-1.1-0.5-2.3-1-3.5-1.4
		C-88.4,1981-89.7,1980.8-91.1,1980.8L-91.1,1980.8z M-57.6,2009.3h-5.3v-15.2c0-1.9-0.4-3.3-1.1-4.3c-0.7-1-2-1.4-3.6-1.4
		c-2.2,0-3.8,0.7-4.8,2s-1.5,3.5-1.5,6.6v12.2h-5.2v-34.7h5.2v8.8c0,1.4-0.1,2.9-0.3,4.5h0.3c0.7-1.2,1.7-2.1,3-2.8
		c1.3-0.7,2.8-1,4.4-1c6,0,9,3,9,9L-57.6,2009.3L-57.6,2009.3z M-42.3,2009.8c-3.8,0-6.8-1.1-9-3.4c-2.2-2.2-3.2-5.3-3.2-9.2
		c0-4,1-7.2,3-9.5s4.8-3.5,8.3-3.5c3.3,0,5.8,1,7.7,3s2.8,4.7,2.8,8.2v2.8h-16.4c0.1,2.4,0.7,4.2,1.9,5.5s2.9,1.9,5.1,1.9
		c1.5,0,2.8-0.1,4.1-0.4s2.6-0.7,4-1.4v4.3c-1.3,0.6-2.6,1-3.9,1.3S-40.6,2009.8-42.3,2009.8L-42.3,2009.8z M-43.3,1988.2
		c-1.7,0-3,0.5-4,1.6s-1.6,2.6-1.8,4.6h11.2c0-2-0.5-3.6-1.5-4.6C-40.3,1988.7-41.6,1988.2-43.3,1988.2L-43.3,1988.2z M-17,1984.2
		c1.1,0,1.9,0.1,2.6,0.2l-0.5,4.9c-0.7-0.2-1.5-0.3-2.3-0.3c-2.1,0-3.8,0.7-5.1,2.1s-2,3.1-2,5.3v12.9h-5.2v-24.7h4.1l0.7,4.3h0.3
		c0.8-1.5,1.9-2.6,3.2-3.5C-19.9,1984.6-18.5,1984.2-17,1984.2z M-7.5,1996.3l3-3.7l7.4-7.9h6l-9.9,10.6l10.5,14.1H3.3l-7.9-10.8
		l-2.9,2.4v8.4h-5.2v-34.7h5.2v16.9l-0.3,4.7H-7.5L-7.5,1996.3z M26.2,2009.3l-1-3.4H25c-1.2,1.5-2.4,2.5-3.6,3.1
		c-1.2,0.5-2.8,0.8-4.6,0.8c-2.4,0-4.3-0.7-5.7-2s-2-3.2-2-5.6c0-2.5,0.9-4.5,2.8-5.8s4.8-2,8.6-2.1l4.3-0.1v-1.3
		c0-1.6-0.4-2.8-1.1-3.5c-0.7-0.8-1.9-1.2-3.4-1.2c-1.3,0-2.5,0.2-3.6,0.6c-1.2,0.4-2.3,0.8-3.3,1.3l-1.7-3.7
		c1.3-0.7,2.8-1.2,4.4-1.6s3.1-0.5,4.5-0.5c3.1,0,5.5,0.7,7.1,2.1s2.4,3.5,2.4,6.4v16.6L26.2,2009.3L26.2,2009.3z M18.4,2005.7
		c1.9,0,3.4-0.5,4.6-1.6s1.7-2.6,1.7-4.5v-2.1l-3.2,0.1c-2.5,0.1-4.3,0.5-5.4,1.2s-1.7,1.9-1.7,3.4c0,1.1,0.3,2,1,2.6
		S17.1,2005.7,18.4,2005.7L18.4,2005.7z M51.1,2002.3c0,2.4-0.9,4.3-2.6,5.5c-1.8,1.3-4.3,1.9-7.5,1.9c-3.3,0-5.9-0.5-7.9-1.5v-4.5
		c2.9,1.3,5.6,2,8.1,2c3.2,0,4.8-1,4.8-2.9c0-0.6-0.2-1.1-0.5-1.6c-0.4-0.4-0.9-0.8-1.8-1.3s-2-1-3.4-1.5c-2.8-1.1-4.8-2.2-5.8-3.3
		c-1-1.1-1.5-2.5-1.5-4.3c0-2.1,0.9-3.7,2.6-4.9s4-1.8,6.9-1.8s5.6,0.6,8.2,1.8l-1.7,3.9c-2.7-1.1-4.9-1.6-6.7-1.6
		c-2.8,0-4.1,0.8-4.1,2.4c0,0.8,0.4,1.4,1.1,2s2.3,1.3,4.7,2.2c2,0.8,3.5,1.5,4.4,2.2s1.6,1.4,2.1,2.3
		C50.9,2000.1,51.1,2001.1,51.1,2002.3L51.1,2002.3z M50.3,1984.7H56l5,14c0.8,2,1.3,3.9,1.5,5.6h0.2c0.1-0.8,0.4-1.8,0.7-3
		s2.2-6.7,5.7-16.6h5.7l-10.5,27.9c-1.9,5.1-5.1,7.7-9.6,7.7c-1.2,0-2.3-0.1-3.4-0.4v-4.1c0.8,0.2,1.7,0.3,2.7,0.3
		c2.5,0,4.3-1.5,5.3-4.4l0.9-2.3L50.3,1984.7L50.3,1984.7z"/>
</g>
<g>
	<g>
		<g>
			<path class="st8" d="M-525.1,315l46.8-26.7c10.8-6.5,14.5-20.6,8.3-31.3c-6.5-10.8-20.6-14.4-31.4-8.3l-80.6,46.7L-525.1,315z"/>
		</g>
		<g>
			<path class="st9" d="M-490,383.8c7.7,0,15.7-4,19.7-11.7c6.5-10.8,2.5-24.9-8.3-31.3l-80.6-46.7c-10.8-6.5-24.9-2.5-31.4,8.3
				c-6.5,10.8-2.5,24.9,8.3,31.3l80.6,46.7C-498,382.9-494.3,383.8-490,383.8z"/>
		</g>
		<g>
			<path class="st10" d="M-410.3,383.8c3.7,0,7.7-1.2,11.7-3.1l80.6-46.7l-56-20.6l-47.4,27.3c-10.8,6.5-14.5,20.6-8.3,31.3
				C-426,379.8-418,383.8-410.3,383.8z"/>
		</g>
		<g>
			<path class="st11" d="M-329.7,337.4c7.7,0,15.7-4,19.7-11.7c6.5-10.8,2.5-24.9-8.3-31.3l-80.6-46.7c-10.8-6.5-24.9-2.5-31.4,8.3
				c-6.5,10.8-2.5,24.9,8.3,31.3l80.6,46.7C-337.4,336.5-333.4,337.4-329.7,337.4z"/>
		</g>
	</g>
	<text transform="matrix(1.0013 0 0 1 -248.25 365.1685)" class="st12 st13 st14">GDG Portugal</text>
</g>
</svg>
