<?xml version="1.0" encoding="utf-8"?>
<!-- Generator: Adobe Illustrator 19.0.0, SVG Export Plug-In . SVG Version: 6.00 Build 0)  -->
<svg version="1.1" id="Camada_1" xmlns="http://www.w3.org/2000/svg" xmlns:xlink="http://www.w3.org/1999/xlink" x="0px" y="0px"
	 viewBox="0 0 x y" style="enable-background:new 0 0 1252.6 158.5;" xml:space="preserve">
<style type="text/css">
	.st0{fill:#EA4335;}
	.st1{fill:#4285F4;}
	.st2{fill:#FBBC04;}
	.st3{fill:#0F9D58;}
	.st4{fill:#676C72;}
	.st5{font-family:'GoogleSans-Regular';}
	.st6{font-size:142.7043px;}
</style>
<g id="XMLID_7_">
	<g id="XMLID_9_">
		<g id="XMLID_16_">
			<path id="XMLID_5_" class="st0" d="M69.4,71.7l47.3-27c10.9-6.5,14.6-20.8,8.4-31.7c-6.5-10.9-20.8-14.6-31.7-8.4L11.8,51.9
				L69.4,71.7z"/>
		</g>
		<g id="XMLID_14_">
			<path id="XMLID_4_" class="st1" d="M104.8,141.3c7.8,0,15.9-4,19.9-11.8c6.5-10.9,2.5-25.1-8.4-31.7L34.9,50.6
				C24,44.1,9.7,48.1,3.1,59c-6.5,10.9-2.5,25.1,8.4,31.7L93,137.9C96.7,140.4,100.4,141.3,104.8,141.3z"/>
		</g>
		<g id="XMLID_12_">
			<path id="XMLID_3_" class="st2" d="M185.3,141.3c3.7,0,7.8-1.2,11.8-3.1L278.6,91L222,70.2l-47.9,27.6
				c-10.9,6.5-14.6,20.8-8.4,31.7C169.5,137.3,177.5,141.3,185.3,141.3z"/>
		</g>
		<g id="XMLID_10_">
			<path id="XMLID_2_" class="st3" d="M266.8,94.4c7.8,0,15.9-4,19.9-11.8c6.5-10.9,2.5-25.1-8.4-31.7L196.8,3.8
				c-10.9-6.5-25.2-2.5-31.7,8.4s-2.5,25.1,8.4,31.7L255,91C259,93.5,263,94.4,266.8,94.4z"/>
		</g>
	</g>
	<text id="XMLID_1_" transform="matrix(1.0013 0 0 1 349.1264 122.4406)" class="st4 st5 st6">GDG Portugal</text>
</g>
</svg>
